# xmcd
#
# Track frame offsets:
#  300
#  15371
#  29588
#  43023
#  57585
#  66588
#  77015
#  89838
#  102031
#  112126
#
# Disc length: 1627 seconds
#
# Revision: 0
# Processed by: cddbd v1.5.1PL2 Copyright (c) Steve Scherf et al.
# Submitted via: Collectorz.com_Music_Collector 6.9
#
DISCID=8c06570a
DTITLE=John Anderson - Country Comfort
DYEAR=1900
DGENRE=Country
TTITLE0=Country Comfort
TTITLE1=I'm Just Here to Love You
TTITLE2=What Did I Promise Her Last Night
TTITLE3=Somehow,Someway,Someday
TTITLE4=If Love Could Find Us Now
TTITLE5=If There Were No Memories
TTITLE6=Stop In Nevada
TTITLE7=Just At Dawn
TTITLE8=Swoop Down Sweet Jesus
TTITLE9=Mississippi Rainstorm
EXTD=
EXTT0=
EXTT1=
EXTT2=
EXTT3=
EXTT4=
EXTT5=
EXTT6=
EXTT7=
EXTT8=
EXTT9=
PLAYORDER=
